<svg xmlns="http://www.w3.org/2000/svg" version="1.1" width="128px" height="128px" style="shape-rendering:geometricPrecision; text-rendering:geometricPrecision; image-rendering:optimizeQuality; fill-rule:evenodd; clip-rule:evenodd" xmlns:xlink="http://www.w3.org/1999/xlink">
    <g><path style="opacity:1" fill="#121212" d="M -0.5,-0.5 C 42.1667,-0.5 84.8333,-0.5 127.5,-0.5C 127.5,42.1667 127.5,84.8333 127.5,127.5C 84.8333,127.5 42.1667,127.5 -0.5,127.5C -0.5,84.8333 -0.5,42.1667 -0.5,-0.5 Z"/></g>
    <g><path style="opacity:1" fill="#353940" d="M 98.5,16.5 C 102.571,16.2338 106.571,16.5672 110.5,17.5C 113.086,24.3037 111.753,30.4703 106.5,36C 102.605,39.7998 97.9378,41.9665 92.5,42.5C 94.5523,63.0949 95.0523,83.7615 94,104.5C 90.767,109.249 86.267,111.082 80.5,110C 79.3147,108.647 77.9814,107.48 76.5,106.5C 70.6124,112.075 65.1124,111.742 60,105.5C 56.0135,111.07 51.1802,111.903 45.5,108C 43.7301,103.667 42.3968,99.1672 41.5,94.5C 21.4505,85.2262 13.2838,69.5595 17,47.5C 24.3743,26.5546 39.2076,16.7213 61.5,18C 69.4818,18.8806 76.6485,21.7139 83,26.5C 87.8231,22.5131 92.9897,19.1797 98.5,16.5 Z"/></g>
    <g><path style="opacity:1" fill="#aab2ba" d="M 20.5,42.5 C 43.8333,42.5 67.1667,42.5 90.5,42.5C 90.2978,44.9892 90.7978,47.3225 92,49.5C 92.6667,67.5 92.6667,85.5 92,103.5C 88.9375,108.869 84.7708,109.869 79.5,106.5C 78.316,104.954 77.316,103.287 76.5,101.5C 74.9685,108.044 70.9685,110.211 64.5,108C 62.9431,105.704 61.2764,103.538 59.5,101.5C 58.1895,107.643 54.5228,109.809 48.5,108C 47.3333,106.833 46.1667,105.667 45,104.5C 44.6667,96.8333 44.3333,89.1667 44,81.5C 42.3948,78.7265 40.2281,78.0598 37.5,79.5C 38.9905,80.2436 40.4905,80.9103 42,81.5C 42.8253,85.2113 42.6586,88.878 41.5,92.5C 26.0402,85.6063 18.0402,73.6063 17.5,56.5C 17.8714,51.683 18.8714,47.0163 20.5,42.5 Z"/></g>
    <g><path style="opacity:1" fill="#3a4046" d="M 72.5,78.5 C 76.3931,81.2779 77.7264,84.9445 76.5,89.5C 75.1076,88.3947 73.941,87.0614 73,85.5C 71.6667,86.8333 70.3333,88.1667 69,89.5C 68.3333,87.8333 68.3333,86.1667 69,84.5C 70.3937,82.6125 71.5604,80.6125 72.5,78.5 Z"/></g>
    <g><path style="opacity:1" fill="#373d43" d="M 78.5,52.5 C 86.9553,52.696 90.122,57.0293 88,65.5C 86.044,70.8126 82.7106,72.1459 78,69.5C 74.5263,63.6452 74.6929,57.9785 78.5,52.5 Z"/></g>
    <g><path style="opacity:1" fill="#393f45" d="M 58.5,51.5 C 64.2044,52.0418 66.871,55.2085 66.5,61C 67.1481,66.6266 64.8148,70.1266 59.5,71.5C 51.8915,65.2716 51.5582,58.6049 58.5,51.5 Z"/></g>
    <g><path style="opacity:1" fill="#e261e3" d="M 48.5,19.5 C 57.4078,18.9216 66.0745,20.0883 74.5,23C 77.0094,24.4213 79.3428,26.0879 81.5,28C 75.4638,33.0194 68.7972,37.0194 61.5,40C 48.4872,40.8327 35.4872,40.666 22.5,39.5C 24.5458,34.9503 27.5458,31.1169 31.5,28C 36.7119,24.0607 42.3785,21.2273 48.5,19.5 Z"/></g>
    <g><path style="opacity:1" fill="#e261e2" d="M 97.5,18.5 C 101.767,18.203 105.934,18.5363 110,19.5C 110.635,30.199 105.801,37.0324 95.5,40C 85.5,40.6667 75.5,40.6667 65.5,40C 69.0587,38.7723 72.392,37.1056 75.5,35C 82.7225,29.236 90.0558,23.736 97.5,18.5 Z"/></g>
</svg>
