<svg xmlns="http://www.w3.org/2000/svg" version="1.1" width="192px" height="192px" style="shape-rendering:geometricPrecision; text-rendering:geometricPrecision; image-rendering:optimizeQuality; fill-rule:evenodd; clip-rule:evenodd" xmlns:xlink="http://www.w3.org/1999/xlink">
    <g><path style="opacity:1" fill="#121212" d="M -0.5,-0.5 C 63.5,-0.5 127.5,-0.5 191.5,-0.5C 191.5,63.5 191.5,127.5 191.5,191.5C 127.5,191.5 63.5,191.5 -0.5,191.5C -0.5,127.5 -0.5,63.5 -0.5,-0.5 Z"/></g>
    <g><path style="opacity:1" fill="#3c3e47" d="M 150.5,24.5 C 164.666,21.1736 170.499,26.5069 168,40.5C 162.945,54.3972 153.112,62.0638 138.5,63.5C 139.266,67.8324 140.1,72.1658 141,76.5C 141.667,102.833 141.667,129.167 141,155.5C 136.626,164.965 129.459,167.798 119.5,164C 118,162.5 116.5,161 115,159.5C 113.749,162.381 111.583,164.214 108.5,165C 103.743,165.81 99.0759,165.476 94.5,164C 92.981,162.649 91.6477,161.149 90.5,159.5C 85.0152,165.629 78.3486,167.129 70.5,164C 67.5703,161.88 65.737,159.047 65,155.5C 64.6667,151.167 64.3333,146.833 64,142.5C 34.7624,129.699 21.7624,107.366 25,75.5C 30.7444,50.0892 46.2444,34.2559 71.5,28C 85.2014,26.3305 98.5347,27.6638 111.5,32C 116.239,34.2433 120.572,37.0767 124.5,40.5C 128.644,37.5237 132.644,34.357 136.5,31C 141.147,28.5056 145.814,26.339 150.5,24.5 Z"/></g>
    <g><path style="opacity:1" fill="#e361e3" d="M 140.5,60.5 C 127.323,60.8288 114.323,60.4955 101.5,59.5C 106.611,56.8947 111.611,54.0613 116.5,51C 125.79,42.6895 135.79,35.3561 146.5,29C 164.413,22.9098 169.913,28.4098 163,45.5C 158.026,54.3108 150.526,59.3108 140.5,60.5 Z"/></g>
    <g><path style="opacity:1" fill="#e361e3" d="M 75.5,29.5 C 93.1503,27.1594 108.817,31.4927 122.5,42.5C 113.86,50.6352 103.86,56.4686 92.5,60C 74.6559,60.2433 56.8226,60.7433 39,61.5C 37.1667,61.1667 35.3333,60.8333 33.5,60.5C 42.5257,43.3303 56.5257,32.997 75.5,29.5 Z"/></g>
    <g><path style="opacity:1" fill="#8d4d93" d="M 101.5,59.5 C 114.323,60.4955 127.323,60.8288 140.5,60.5C 126.339,61.6608 112.006,61.8275 97.5,61C 98.9007,60.5899 100.234,60.0899 101.5,59.5 Z"/></g>
    <g><path style="opacity:1" fill="#abb3bb" d="M 31.5,64.5 C 66.1731,64.1668 100.84,64.5001 135.5,65.5C 136.866,68.6925 137.699,72.0258 138,75.5C 138.667,102.167 138.667,128.833 138,155.5C 134.903,162.132 129.736,164.299 122.5,162C 118.282,160.265 116.449,157.099 117,152.5C 116.586,152.043 116.086,151.709 115.5,151.5C 114.13,154.729 112.464,157.896 110.5,161C 100.007,165.546 93.3399,162.38 90.5,151.5C 87.8074,161.514 81.474,164.68 71.5,161C 69.5125,159.681 68.3459,157.848 68,155.5C 67.4778,143.738 66.4778,132.072 65,120.5C 62.3603,118.476 59.527,118.143 56.5,119.5C 58.3328,121.05 60.4994,122.05 63,122.5C 64.7375,128.082 64.9041,133.749 63.5,139.5C 40.1938,129.167 27.8605,111.167 26.5,85.5C 26.7817,78.1248 28.4484,71.1248 31.5,64.5 Z"/></g>
    <g><path style="opacity:1" fill="#363d43" d="M 86.5,78.5 C 93.3392,77.1656 97.8392,79.8323 100,86.5C 101.593,94.0444 99.7598,100.544 94.5,106C 90.3134,108.275 86.8134,107.441 84,103.5C 78.7238,94.4906 79.5571,86.1573 86.5,78.5 Z"/></g>
    <g><path style="opacity:1" fill="#363c42" d="M 119.5,78.5 C 125.655,77.3264 129.821,79.6598 132,85.5C 133.733,93.1662 132.233,99.9996 127.5,106C 121.147,108.076 116.647,105.91 114,99.5C 111.978,91.351 113.811,84.351 119.5,78.5 Z"/></g>
    <g><path style="opacity:1" fill="#394046" d="M 108.5,117.5 C 112.976,120.835 115.643,125.335 116.5,131C 116.546,132.728 116.046,134.228 115,135.5C 113.167,133.167 111.333,130.833 109.5,128.5C 107.833,130.833 105.833,132.833 103.5,134.5C 103.167,133.667 102.833,132.833 102.5,132C 103.843,126.847 105.843,122.014 108.5,117.5 Z"/></g>
</svg>
