<svg xmlns="http://www.w3.org/2000/svg" version="1.1" width="384px" height="384px" style="shape-rendering:geometricPrecision; text-rendering:geometricPrecision; image-rendering:optimizeQuality; fill-rule:evenodd; clip-rule:evenodd" xmlns:xlink="http://www.w3.org/1999/xlink">
    <g><path style="opacity:1" fill="#121212" d="M -0.5,-0.5 C 127.5,-0.5 255.5,-0.5 383.5,-0.5C 383.5,127.5 383.5,255.5 383.5,383.5C 255.5,383.5 127.5,383.5 -0.5,383.5C -0.5,255.5 -0.5,127.5 -0.5,-0.5 Z"/></g>
    <g><path style="opacity:1" fill="#363b42" d="M 305.5,49.5 C 311.842,49.3338 318.175,49.5005 324.5,50C 331.564,51.397 336.064,55.5637 338,62.5C 337.342,91.9601 323.508,112.793 296.5,125C 289.777,126.464 283.111,127.964 276.5,129.5C 280.279,140.505 282.446,151.839 283,163.5C 283.667,211.833 283.667,260.167 283,308.5C 280.066,323.443 271.066,331.11 256,331.5C 245.284,332.307 236.95,328.307 231,319.5C 228.833,324.333 225.333,327.833 220.5,330C 212.881,331.429 205.215,331.762 197.5,331C 189.989,329.078 184.656,324.578 181.5,317.5C 178.371,324.571 173.038,329.071 165.5,331C 149.347,334.67 137.847,329.17 131,314.5C 129.842,304.876 129.176,295.209 129,285.5C 84.8996,269.069 58.5663,237.735 50,191.5C 44.8011,145.411 59.9678,107.578 95.5,78C 126.98,56.037 161.647,49.037 199.5,57C 218.539,60.7703 235.372,68.9369 250,81.5C 262.131,70.3775 275.631,61.2108 290.5,54C 295.604,52.4241 300.604,50.9241 305.5,49.5 Z"/></g>
    <g><path style="opacity:1" fill="#e461e4" d="M 308.5,54.5 C 329.622,52.1231 337.122,61.1231 331,81.5C 322.817,101.693 308.317,115.193 287.5,122C 257.833,122.667 228.167,122.667 198.5,122C 207.94,118.114 216.94,113.447 225.5,108C 243.833,93.6667 262.167,79.3333 280.5,65C 289.331,59.7836 298.664,56.2836 308.5,54.5 Z"/></g>
    <g><path style="opacity:1" fill="#e461e4" d="M 90.5,122.5 C 82.6484,122.825 74.9818,122.492 67.5,121.5C 88.998,81.1461 122.831,60.4795 169,59.5C 192.988,58.7045 215.155,64.5378 235.5,77C 238.667,79.5 241.833,82 245,84.5C 245.617,85.4491 245.451,86.2825 244.5,87C 226.485,102.514 206.152,114.18 183.5,122C 152.502,122.5 121.502,122.667 90.5,122.5 Z"/></g>
    <g><path style="opacity:1" fill="#8a4d91" d="M 67.5,121.5 C 74.9818,122.492 82.6484,122.825 90.5,122.5C 82.6572,123.82 74.6572,123.82 66.5,122.5C 66.6236,121.893 66.9569,121.56 67.5,121.5 Z"/></g>
    <g><path style="opacity:1" fill="#acb4bc" d="M 63.5,128.5 C 132.833,128.5 202.167,128.5 271.5,128.5C 273.798,137.367 275.632,146.367 277,155.5C 277.667,207.167 277.667,258.833 277,310.5C 273.626,321.053 266.459,326.386 255.5,326.5C 242.046,326.544 234.879,319.878 234,306.5C 232,302.5 230,302.5 228,306.5C 228.355,316.986 223.522,323.486 213.5,326C 196.379,329.373 186.546,322.54 184,305.5C 182.333,304.167 180.667,304.167 179,305.5C 177.804,319.031 170.47,326.031 157,326.5C 144.428,326.263 137.095,319.93 135,307.5C 134.941,286.791 134.274,266.124 133,245.5C 129.066,238.124 122.899,235.457 114.5,237.5C 114.5,239.167 114.5,240.833 114.5,242.5C 117.518,242.335 120.518,242.502 123.5,243C 125.815,244.109 127.315,245.943 128,248.5C 129.672,258.805 129.839,269.139 128.5,279.5C 81.423,259.764 56.7564,224.431 54.5,173.5C 54.4679,166.455 54.9679,159.455 56,152.5C 58.4036,144.457 60.9036,136.457 63.5,128.5 Z"/></g>
    <g><path style="opacity:1" fill="#353b41" d="M 177.5,156.5 C 186.933,155.969 193.767,159.969 198,168.5C 203.091,181.463 202.425,194.13 196,206.5C 187.668,217.586 178.668,218.253 169,208.5C 160.773,193.999 160.44,179.332 168,164.5C 170.772,161.217 173.939,158.55 177.5,156.5 Z"/></g>
    <g><path style="opacity:1" fill="#353b41" d="M 242.5,156.5 C 254.149,156.954 261.649,162.954 265,174.5C 268.091,186.219 266.425,197.219 260,207.5C 251.043,218.158 242.043,218.158 233,207.5C 225.699,193.086 225.699,178.752 233,164.5C 235.772,161.217 238.939,158.55 242.5,156.5 Z"/></g>
    <g><path style="opacity:1" fill="#373d43" d="M 218.5,235.5 C 220.017,235.511 221.184,236.177 222,237.5C 228.187,245.375 232.354,254.208 234.5,264C 233.633,271.511 230.8,272.345 226,266.5C 224,263.167 222,259.833 220,256.5C 217.275,262.059 213.109,266.059 207.5,268.5C 206.558,268.392 205.725,268.059 205,267.5C 204.262,263.598 204.928,259.932 207,256.5C 211.366,249.766 215.199,242.766 218.5,235.5 Z"/></g>
</svg>
