<svg xmlns="http://www.w3.org/2000/svg" version="1.1" width="512px" height="512px" style="shape-rendering:geometricPrecision; text-rendering:geometricPrecision; image-rendering:optimizeQuality; fill-rule:evenodd; clip-rule:evenodd" xmlns:xlink="http://www.w3.org/1999/xlink">
    <g><path style="opacity:1" fill="#121212" d="M -0.5,-0.5 C 170.167,-0.5 340.833,-0.5 511.5,-0.5C 511.5,170.167 511.5,340.833 511.5,511.5C 340.833,511.5 170.167,511.5 -0.5,511.5C -0.5,340.833 -0.5,170.167 -0.5,-0.5 Z"/></g>
    <g><path style="opacity:1" fill="#353A41" d="M 408.5,66.5 C 416.84,66.3336 425.173,66.5003 433.5,67C 441.477,68.9752 446.977,73.8085 450,81.5C 451.441,88.1097 451.774,94.7764 451,101.5C 443.359,130.466 426.193,151.633 399.5,165C 389.945,168.577 380.111,170.744 370,171.5C 372.684,184.287 375.018,197.287 377,210.5C 378.568,277.491 378.901,344.491 378,411.5C 372.035,435.755 356.535,445.922 331.5,442C 321.546,440.21 313.879,435.044 308.5,426.5C 303.055,436.227 294.722,441.394 283.5,442C 268.766,445.031 256.266,441.197 246,430.5C 244.414,428.33 243.08,425.996 242,423.5C 238.04,432.124 231.54,437.958 222.5,441C 196.068,447.38 179.568,437.547 173,411.5C 172.832,401.151 172.332,390.817 171.5,380.5C 111.502,357.334 76.3352,314 66,250.5C 61.8891,193.821 80.7224,146.321 122.5,108C 165.516,75.9307 213.516,65.264 266.5,76C 291.767,80.9681 314.101,91.8014 333.5,108.5C 346.743,97.7554 360.41,87.5887 374.5,78C 385.45,72.6282 396.784,68.7949 408.5,66.5 Z"/></g>
    <g><path style="opacity:1" fill="#E461E4" d="M 373.5,163.5 C 337.329,163.832 301.329,163.498 265.5,162.5C 278.412,157.045 290.745,150.545 302.5,143C 321.789,128.046 340.789,112.713 359.5,97C 371.38,87.3915 384.714,80.3915 399.5,76C 443.066,66.5972 454.899,82.0972 435,122.5C 424.414,140.754 409.247,153.587 389.5,161C 384.361,162.961 379.028,163.794 373.5,163.5 Z"/></g>
    <g><path style="opacity:1" fill="#E561E5" d="M 120.5,163.5 C 110.111,164.141 100.111,163.474 90.5,161.5C 110.129,122.387 141.129,96.8873 183.5,85C 223.651,75.4995 262.651,78.8328 300.5,95C 310.376,100.103 319.376,106.437 327.5,114C 302.917,135.966 274.917,152.3 243.5,163C 202.501,163.5 161.501,163.667 120.5,163.5 Z"/></g>
    <g><path style="opacity:1" fill="#B757BA" d="M 90.5,161.5 C 100.111,163.474 110.111,164.141 120.5,163.5C 110.347,164.494 100.014,164.828 89.5,164.5C 89.2627,163.209 89.596,162.209 90.5,161.5 Z"/></g>
    <g><path style="opacity:1" fill="#604469" d="M 265.5,162.5 C 301.329,163.498 337.329,163.832 373.5,163.5C 336.669,164.664 299.669,164.831 262.5,164C 263.527,163.487 264.527,162.987 265.5,162.5 Z"/></g>
    <g><path style="opacity:1" fill="#8E959D" d="M 85.5,172.5 C 131.332,171.833 177.332,171.5 223.5,171.5C 269.838,171.5 315.838,172.167 361.5,173.5C 269.571,172.503 177.571,172.169 85.5,172.5 Z"/></g>
    <g><path style="opacity:1" fill="#ACB4BC" d="M 85.5,172.5 C 177.571,172.169 269.571,172.503 361.5,173.5C 365.662,186.168 368.496,199.168 370,212.5C 370.667,278.5 370.667,344.5 370,410.5C 365.681,430.081 353.515,438.248 333.5,435C 319.122,432.1 311.955,423.267 312,408.5C 309.452,404.535 306.785,404.535 304,408.5C 304.976,424.085 297.81,432.919 282.5,435C 270.14,437.655 259.64,434.489 251,425.5C 247.714,420.31 246.048,414.643 246,408.5C 242.801,404.341 240.135,404.675 238,409.5C 237.399,423.093 230.566,431.593 217.5,435C 198.992,438.175 186.825,431.008 181,413.5C 179.764,387.19 179.097,360.857 179,334.5C 176.71,319.921 168.21,314.088 153.5,317C 152.167,319 152.167,321 153.5,323C 165.943,321.443 172.11,326.943 172,339.5C 172.5,350.495 172.667,361.495 172.5,372.5C 132.092,358.264 102.926,331.598 85,292.5C 69.8425,254.876 68.8425,216.876 82,178.5C 82.941,176.273 84.1077,174.273 85.5,172.5 Z"/></g>
    <g><path style="opacity:1" fill="#343A40" d="M 235.5,209.5 C 245.543,207.613 253.71,210.613 260,218.5C 270.991,237.505 271.324,256.838 261,276.5C 249.931,289.007 238.264,289.674 226,278.5C 219.289,268.796 216.122,257.963 216.5,246C 216.428,230.305 222.761,218.138 235.5,209.5 Z"/></g>
    <g><path style="opacity:1" fill="#343A40" d="M 326.5,208.5 C 335.304,208.65 342.138,212.317 347,219.5C 352.782,227.733 355.282,236.9 354.5,247C 355.331,261.868 350.331,274.202 339.5,284C 327.83,289.306 318.33,286.806 311,276.5C 303.476,262.344 301.476,247.344 305,231.5C 308.591,220.193 315.758,212.526 326.5,208.5 Z"/></g>
    <g><path style="opacity:1" fill="#363C42" d="M 292.5,313.5 C 300.745,322.968 307.245,333.635 312,345.5C 313.635,351.7 312.301,357.033 308,361.5C 305.708,360.21 303.708,358.543 302,356.5C 299.167,352.167 296.333,347.833 293.5,343.5C 290.186,347.948 286.52,352.115 282.5,356C 279.859,358.209 277.025,358.709 274,357.5C 273.233,353.406 273.566,349.406 275,345.5C 280.259,334.436 286.093,323.77 292.5,313.5 Z"/></g>
</svg>
