<svg xmlns="http://www.w3.org/2000/svg" version="1.1" width="48px" height="48px" style="shape-rendering:geometricPrecision; text-rendering:geometricPrecision; image-rendering:optimizeQuality; fill-rule:evenodd; clip-rule:evenodd" xmlns:xlink="http://www.w3.org/1999/xlink">
    <g><path style="opacity:1" fill="#151516" d="M -0.5,-0.5 C 15.5,-0.5 31.5,-0.5 47.5,-0.5C 47.5,15.5 47.5,31.5 47.5,47.5C 31.5,47.5 15.5,47.5 -0.5,47.5C -0.5,31.5 -0.5,15.5 -0.5,-0.5 Z"/></g>
    <g><path style="opacity:1" fill="#DB5FDB" d="M 35.5,14.5 C 32.4816,14.6646 29.4816,14.498 26.5,14C 27.9423,13.6232 28.9423,12.7899 29.5,11.5C 31.34,9.83203 33.34,8.33203 35.5,7C 40.6244,5.4527 42.1244,6.9527 40,11.5C 38.871,13.1412 37.371,14.1412 35.5,14.5 Z"/></g>
    <g><path style="opacity:1" fill="#E261E2" d="M 29.5,11.5 C 22.822,14.2175 15.822,15.2175 8.5,14.5C 12.6616,7.88098 18.6616,5.71431 26.5,8C 28.4257,8.42244 29.4257,9.5891 29.5,11.5 Z"/></g>
    <g><path style="opacity:1" fill="#774B7E" d="M 29.5,11.5 C 28.9423,12.7899 27.9423,13.6232 26.5,14C 29.4816,14.498 32.4816,14.6646 35.5,14.5C 35.1583,15.3382 34.4916,15.6716 33.5,15.5C 24.8333,15.5 16.1667,15.5 7.5,15.5C 7.5,14.8333 7.83333,14.5 8.5,14.5C 15.822,15.2175 22.822,14.2175 29.5,11.5 Z"/></g>
    <g><path style="opacity:1" fill="#A5ADB4" d="M 7.5,15.5 C 16.1667,15.5 24.8333,15.5 33.5,15.5C 34.4396,23.7788 34.7729,32.1122 34.5,40.5C 32.8333,40.5 31.1667,40.5 29.5,40.5C 28.8333,36.5 28.1667,36.5 27.5,40.5C 24.7615,41.0352 22.9282,40.0352 22,37.5C 21.5172,38.448 21.3505,39.448 21.5,40.5C 19.8561,40.7135 18.3561,40.3802 17,39.5C 16.9209,35.6423 16.2542,31.9756 15,28.5C 16.0262,35.5312 14.0262,35.8646 9,29.5C 6.5186,24.9899 6.0186,20.3232 7.5,15.5 Z"/></g>
    <g><path style="opacity:1" fill="#3F454B" d="M 20.5,19.5 C 24.4735,20.0755 25.4735,22.2421 23.5,26C 19.6314,25.4919 18.6314,23.3252 20.5,19.5 Z"/></g>
    <g><path style="opacity:1" fill="#363C42" d="M 29.5,19.5 C 31.7224,19.5587 32.7224,20.7253 32.5,23C 31.1667,27.6667 29.8333,27.6667 28.5,23C 28.6483,21.7441 28.9816,20.5774 29.5,19.5 Z"/></g>
    <g><path style="opacity:1" fill="#3B4147" d="M 26.5,29.5 C 28.0847,30.0024 28.5847,31.0024 28,32.5C 27.3333,31.1667 26.6667,31.1667 26,32.5C 25.5304,31.4232 25.6971,30.4232 26.5,29.5 Z"/></g>
</svg>
