<svg xmlns="http://www.w3.org/2000/svg" version="1.1" width="96px" height="96px" style="shape-rendering:geometricPrecision; text-rendering:geometricPrecision; image-rendering:optimizeQuality; fill-rule:evenodd; clip-rule:evenodd" xmlns:xlink="http://www.w3.org/1999/xlink">
    <g><path style="opacity:1" fill="#121212" d="M -0.5,-0.5 C 31.5,-0.5 63.5,-0.5 95.5,-0.5C 95.5,31.5 95.5,63.5 95.5,95.5C 63.5,95.5 31.5,95.5 -0.5,95.5C -0.5,63.5 -0.5,31.5 -0.5,-0.5 Z"/></g>
    <g><path style="opacity:1" fill="#373A42" d="M 60.5,81.5 C 64.7163,82.1066 67.5496,80.4399 69,76.5C 70.0205,61.4155 69.5205,46.4155 67.5,31.5C 50.1539,31.1672 32.8205,31.5005 15.5,32.5C 12.7431,40.9191 13.0764,49.2524 16.5,57.5C 7.8094,39.0704 12.4761,24.9037 30.5,15C 39.2671,12.8068 47.9337,13.1401 56.5,16C 58.0931,16.9487 59.4264,18.1154 60.5,19.5C 48.383,12.7663 36.383,12.9329 24.5,20C 21.2694,22.7273 18.6028,25.894 16.5,29.5C 26.8638,30.7853 37.1971,30.7853 47.5,29.5C 48.1667,29.8333 48.8333,30.1667 49.5,30.5C 56.5079,30.6663 63.5079,30.4996 70.5,30C 78.9598,28.2132 82.7932,23.0465 82,14.5C 76.5987,12.6968 71.7654,13.6968 67.5,17.5C 67.4142,16.5041 67.7476,15.6708 68.5,15C 72.8935,12.6261 77.5602,11.9595 82.5,13C 84.8691,15.9378 85.0358,19.1044 83,22.5C 79.8225,28.1767 74.9891,31.51 68.5,32.5C 68.8076,33.3081 69.3076,33.9747 70,34.5C 70.6667,49.1667 70.6667,63.8333 70,78.5C 67.5882,82.3063 64.4215,83.3063 60.5,81.5 Z"/></g>
    <g><path style="opacity:1" fill="#4F3F58" d="M 66.5,17.5 C 61.687,22.9834 56.0203,27.3167 49.5,30.5C 48.8333,30.1667 48.1667,29.8333 47.5,29.5C 50.9,27.963 54.2333,26.1297 57.5,24C 59.1412,22.871 60.1412,21.371 60.5,19.5C 62.6854,19.2964 64.6854,18.6298 66.5,17.5 Z"/></g>
    <g><path style="opacity:1" fill="#E060E0" d="M 60.5,19.5 C 60.1412,21.371 59.1412,22.871 57.5,24C 54.2333,26.1297 50.9,27.963 47.5,29.5C 37.1971,30.7853 26.8638,30.7853 16.5,29.5C 18.6028,25.894 21.2694,22.7273 24.5,20C 36.383,12.9329 48.383,12.7663 60.5,19.5 Z"/></g>
    <g><path style="opacity:1" fill="#DE60DE" d="M 49.5,30.5 C 56.0203,27.3167 61.687,22.9834 66.5,17.5C 66.8333,17.5 67.1667,17.5 67.5,17.5C 71.7654,13.6968 76.5987,12.6968 82,14.5C 82.7932,23.0465 78.9598,28.2132 70.5,30C 63.5079,30.4996 56.5079,30.6663 49.5,30.5 Z"/></g>
    <g><path style="opacity:1" fill="#A8B0B8" d="M 60.5,81.5 C 59.2063,79.704 58.2063,77.704 57.5,75.5C 56.4734,77.5531 55.4734,79.5531 54.5,81.5C 49.3764,82.5361 46.2098,80.5361 45,75.5C 42.7703,82.0768 39.1037,83.0768 34,78.5C 33.6667,72.8333 33.3333,67.1667 33,61.5C 32.6667,61.1667 32.3333,60.8333 32,60.5C 31.5026,63.146 31.3359,65.8127 31.5,68.5C 25.0963,66.7651 20.0963,63.0984 16.5,57.5C 13.0764,49.2524 12.7431,40.9191 15.5,32.5C 32.8205,31.5005 50.1539,31.1672 67.5,31.5C 69.5205,46.4155 70.0205,61.4155 69,76.5C 67.5496,80.4399 64.7163,82.1066 60.5,81.5 Z"/></g>
    <g><path style="opacity:1" fill="#373E44" d="M 43.5,38.5 C 47.8696,39.0414 49.8696,41.5414 49.5,46C 50.0468,49.9564 48.3802,52.4564 44.5,53.5C 40.76,50.367 39.5933,46.367 41,41.5C 42.045,40.6266 42.8783,39.6266 43.5,38.5 Z"/></g>
    <g><path style="opacity:1" fill="#3B4147" d="M 59.5,38.5 C 65.1936,39.8655 67.3603,43.5322 66,49.5C 60.5577,55.351 57.391,54.1843 56.5,46C 56.5476,43.078 57.5476,40.578 59.5,38.5 Z"/></g>
    <g><path style="opacity:1" fill="#3F454B" d="M 53.5,59.5 C 56.5501,60.2418 58.2167,62.2418 58.5,65.5C 57.0013,67.8022 55.668,67.4689 54.5,64.5C 53.5,65.1667 52.5,65.8333 51.5,66.5C 51.1667,66.1667 50.8333,65.8333 50.5,65.5C 51.5588,63.4664 52.5588,61.4664 53.5,59.5 Z"/></g>
    <g><path style="opacity:1" fill="#3A4045" d="M 16.5,57.5 C 20.0963,63.0984 25.0963,66.7651 31.5,68.5C 31.3359,65.8127 31.5026,63.146 32,60.5C 32.3333,60.8333 32.6667,61.1667 33,61.5C 33.3333,67.1667 33.6667,72.8333 34,78.5C 39.1037,83.0768 42.7703,82.0768 45,75.5C 46.2098,80.5361 49.3764,82.5361 54.5,81.5C 50.9274,83.1995 47.7607,82.5328 45,79.5C 41,83.5 37,83.5 33,79.5C 32.502,76.5184 32.3354,73.5184 32.5,70.5C 24.8156,68.9993 19.4823,64.666 16.5,57.5 Z"/></g>
</svg>
