<svg xmlns="http://www.w3.org/2000/svg" version="1.1" width="72px" height="72px" style="shape-rendering:geometricPrecision; text-rendering:geometricPrecision; image-rendering:optimizeQuality; fill-rule:evenodd; clip-rule:evenodd" xmlns:xlink="http://www.w3.org/1999/xlink">
    <g><path style="opacity:1" fill="#141414" d="M -0.5,-0.5 C 23.5,-0.5 47.5,-0.5 71.5,-0.5C 71.5,23.5 71.5,47.5 71.5,71.5C 47.5,71.5 23.5,71.5 -0.5,71.5C -0.5,47.5 -0.5,23.5 -0.5,-0.5 Z"/></g>
    <g><path style="opacity:1" fill="#E161E1" d="M 57.5,9.5 C 60.488,9.15465 61.8213,10.488 61.5,13.5C 60.9745,16.0291 59.9745,18.3624 58.5,20.5C 51.984,22.2691 45.3173,22.9357 38.5,22.5C 44.3465,17.4136 50.6798,13.0803 57.5,9.5 Z"/></g>
    <g><path style="opacity:1" fill="#E060E0" d="M 44.5,14.5 C 44.4894,16.0174 43.8228,17.1841 42.5,18C 40.2726,18.941 38.2726,20.1077 36.5,21.5C 28.555,22.4368 20.555,22.7701 12.5,22.5C 20.4457,9.8987 31.1124,7.23204 44.5,14.5 Z"/></g>
    <g><path style="opacity:1" fill="#5D4265" d="M 57.5,9.5 C 50.6798,13.0803 44.3465,17.4136 38.5,22.5C 37.5084,22.6716 36.8417,22.3382 36.5,21.5C 38.2726,20.1077 40.2726,18.941 42.5,18C 43.8228,17.1841 44.4894,16.0174 44.5,14.5C 48.6404,12.3667 52.9738,10.7 57.5,9.5 Z"/></g>
    <g><path style="opacity:1" fill="#3B3B46" d="M 58.5,20.5 C 55.9791,21.9913 53.6458,23.658 51.5,25.5C 44.9038,24.2049 38.0705,23.5382 31,23.5C 23.9295,23.5382 17.0962,24.2049 10.5,25.5C 10.2852,23.8212 10.9519,22.8212 12.5,22.5C 20.555,22.7701 28.555,22.4368 36.5,21.5C 36.8417,22.3382 37.5084,22.6716 38.5,22.5C 45.3173,22.9357 51.984,22.2691 58.5,20.5 Z"/></g>
    <g><path style="opacity:1" fill="#A8B0B8" d="M 51.5,25.5 C 51.8322,36.8529 51.4988,48.1862 50.5,59.5C 48.1354,60.8217 45.8021,60.8217 43.5,59.5C 43.719,58.325 43.3857,57.325 42.5,56.5C 41.0153,60.4702 38.3487,61.4702 34.5,59.5C 34.719,58.325 34.3857,57.325 33.5,56.5C 30.9503,61.4124 27.9503,61.7458 24.5,57.5C 24.8256,53.1161 24.4922,48.7828 23.5,44.5C 22.6043,43.4937 21.9377,43.4937 21.5,44.5C 24.0822,47.0833 24.0822,49.4167 21.5,51.5C 11.9943,45.3192 8.32765,36.6525 10.5,25.5C 17.0962,24.2049 23.9295,23.5382 31,23.5C 38.0705,23.5382 44.9038,24.2049 51.5,25.5 Z"/></g>
    <g><path style="opacity:1" fill="#393F45" d="M 31.5,29.5 C 37.7863,30.3146 39.1196,33.4812 35.5,39C 33.8876,39.7203 32.3876,39.5536 31,38.5C 30.2642,35.408 30.4309,32.408 31.5,29.5 Z"/></g>
    <g><path style="opacity:1" fill="#373D43" d="M 43.5,29.5 C 49.7863,30.3146 51.1196,33.4812 47.5,39C 45.6332,39.7112 44.1332,39.2112 43,37.5C 42.2782,34.7395 42.4448,32.0728 43.5,29.5 Z"/></g>
    <g><path style="opacity:1" fill="#444A50" d="M 40.5,43.5 C 42.9997,45.1887 43.8331,47.522 43,50.5C 41.9207,48.6063 40.5874,48.273 39,49.5C 38.5906,47.3049 39.0906,45.3049 40.5,43.5 Z"/></g>
    <g><path style="opacity:1" fill="#4B5157" d="M 24.5,57.5 C 23.8419,55.3609 22.8419,53.3609 21.5,51.5C 24.0822,49.4167 24.0822,47.0833 21.5,44.5C 21.9377,43.4937 22.6043,43.4937 23.5,44.5C 24.4922,48.7828 24.8256,53.1161 24.5,57.5 Z"/></g>
    <g><path style="opacity:1" fill="#3F454A" d="M 43.5,59.5 C 40.3088,62.0251 37.3088,62.0251 34.5,59.5C 38.3487,61.4702 41.0153,60.4702 42.5,56.5C 43.3857,57.325 43.719,58.325 43.5,59.5 Z"/></g>
</svg>
